<svg id="Layer_1" enable-background="new 0 0 496.003 496.003" height="512" viewBox="0 0 496.003 496.003" width="512" xmlns="http://www.w3.org/2000/svg"><path d="m406.37 74.859c2.274 2.759 3.63 6.406 3.63 10.141 0 19.319-27.622 21.925-31.69 3.13-3.139-16.398 17.723-26.085 28.06-13.271zm-66.79 26.061c8.98-.877 15.3-9.099 14.34-17.49-1.557-16.24-24.213-20.095-30.69-4.55-4.606 11.031 4.184 23.183 16.35 22.04zm-200.28-10.271c.578-1.805.834-3.986.62-6.22-1.432-14.936-21.034-19.74-29.22-7.31-1.877 2.781-3.006 6.5-2.62 10.449 1.649 17.232 26.077 19.845 31.22 3.081zm-68.72 11.271c7.554-.738 13.617-6.8 14.34-14.351 1.43-14.915-16.631-23.479-27.23-12.88-10.505 10.505-2.189 28.647 12.89 27.231zm425.002 374.456-51.268-220.44c-6.991-30.057-33.426-51.049-64.284-51.049h-29.06c-25.611 0-48.163 14.468-59.093 36.57l-72.91 137.125-32.024-119.902c-1.222-29.806-25.84-53.68-55.941-53.68h-69c-30.879 0-56 25.121-56 56v219c0 8.837 7.163 16 16 16s16-7.163 16-16v-219c0-13.233 10.767-24 24-24h69c13.233 0 24 10.767 24 24v219c0 8.837 7.163 16 16 16s16-7.163 16-16v-97.086c12.206 45.7 11.264 47.016 17.038 51.594 6.413 5.108 15.429 4.48 21.096-1.024 2.505-2.426.185 1.31 35.322-64.774l-25.04 107.667c-2.002 8.606 3.353 17.206 11.96 19.208 8.607 1.999 17.206-3.353 19.208-11.96 55.991-240.748 51.408-222.729 53.888-227.789 6.882-12.942 18.449-18.948 30.496-18.948h29.061c15.896 0 29.515 10.814 33.116 26.298l51.268 220.439c1.998 8.596 10.586 13.963 19.208 11.96 8.606-2.003 13.961-10.603 11.959-19.209zm-495.58-378.876c0-53.21 43.29-96.5 96.5-96.5s96.5 43.29 96.5 96.5-43.29 96.5-96.5 96.5-96.5-43.29-96.5-96.5zm32 0c0 35.565 28.935 64.5 64.5 64.5s64.5-28.935 64.5-64.5-28.935-64.5-64.5-64.5-64.5 28.935-64.5 64.5zm237-.5c0-53.486 43.514-97 97-97s97 43.514 97 97-43.514 97-97 97-97-43.514-97-97zm32 0c0 35.841 29.159 65 65 65s65-29.159 65-65-29.159-65-65-65-65 29.159-65 65z"/></svg>