<svg id="Layer_1" enable-background="new 0 0 496 496" height="512" viewBox="0 0 496 496" width="512" xmlns="http://www.w3.org/2000/svg"><path d="m278.153 323.265h-60.307c-66.536 0-120.667 54.131-120.667 120.667v36.068c0 8.836 7.164 16 16 16s16-7.164 16-16v-36.068c0-38.395 24.532-71.163 58.743-83.466 8.069 25.498 31.947 44.034 60.078 44.034s52.009-18.536 60.077-44.033c34.211 12.303 58.743 45.071 58.743 83.466v36.067c0 8.836 7.164 16 16 16s16-7.164 16-16v-36.068c0-66.536-54.131-120.667-120.667-120.667zm-57.801 32h55.296c-11.703 22.897-43.575 22.93-55.296 0zm-25.972-166.265v-5.824c0-8.836 7.164-16 16-16s16 7.164 16 16v5.824c0 8.836-7.164 16-16 16s-16-7.164-16-16zm75.24 0v-5.824c0-8.836 7.164-16 16-16s16 7.164 16 16v5.824c0 8.836-7.164 16-16 16s-16-7.164-16-16zm-18.949 119.369c77.748 0 141-63.252 141-141 0-9.935 0-38.915 0-48.868-.001-65.341-53.16-118.501-118.503-118.501h-50.337c-65.342 0-118.501 53.16-118.501 118.502v48.868c0 72.491 56.1 140.999 146.341 140.999zm-27.839-276.369h50.337c47.697 0 86.502 38.805 86.502 86.502v4.122c-72.841-19.086-149.911-18.28-223.341 3.304v-7.426c0-47.697 38.804-86.502 86.502-86.502zm-86.502 127.399c72.836-23.35 150.355-24.426 223.341-3.601v11.571c0 60.103-48.897 109-109 109h-5.342c-60.103 0-109-48.897-109-109v-7.97z"/></svg>